<svg width="135" height="18" viewBox="0 0 135 18" fill="none" xmlns="http://www.w3.org/2000/svg">
<path d="M11.7853 5H10.2001C10.1064 4.54403 9.94229 4.14347 9.70792 3.7983C9.47781 3.45312 9.19656 3.16335 8.86417 2.92898C8.53604 2.69034 8.1717 2.51136 7.77113 2.39205C7.37056 2.27273 6.95295 2.21307 6.51829 2.21307C5.72567 2.21307 5.00764 2.41335 4.36417 2.81392C3.72496 3.21449 3.21573 3.80469 2.83647 4.58452C2.46147 5.36435 2.27397 6.32102 2.27397 7.45455C2.27397 8.58807 2.46147 9.54474 2.83647 10.3246C3.21573 11.1044 3.72496 11.6946 4.36417 12.0952C5.00764 12.4957 5.72567 12.696 6.51829 12.696C6.95295 12.696 7.37056 12.6364 7.77113 12.517C8.1717 12.3977 8.53604 12.2209 8.86417 11.9865C9.19656 11.7479 9.47781 11.456 9.70792 11.1108C9.94229 10.7614 10.1064 10.3608 10.2001 9.90909H11.7853C11.666 10.5781 11.4487 11.1768 11.1333 11.7053C10.818 12.2337 10.426 12.6832 9.95721 13.054C9.48846 13.4205 8.96218 13.6996 8.37837 13.8913C7.79883 14.0831 7.1788 14.179 6.51829 14.179C5.40181 14.179 4.40891 13.9062 3.5396 13.3608C2.67028 12.8153 1.98633 12.0398 1.48775 11.0341C0.989169 10.0284 0.739879 8.83523 0.739879 7.45455C0.739879 6.07386 0.989169 4.88068 1.48775 3.875C1.98633 2.86932 2.67028 2.09375 3.5396 1.5483C4.40891 1.00284 5.40181 0.730113 6.51829 0.730113C7.1788 0.730113 7.79883 0.825994 8.37837 1.01776C8.96218 1.20952 9.48846 1.49077 9.95721 1.86151C10.426 2.22798 10.818 2.67543 11.1333 3.20384C11.4487 3.72798 11.666 4.3267 11.7853 5ZM18.131 14.2045C17.2447 14.2045 16.467 13.9936 15.7979 13.5717C15.1332 13.1499 14.6133 12.5597 14.2383 11.8011C13.8675 11.0426 13.6822 10.1562 13.6822 9.14205C13.6822 8.11932 13.8675 7.22656 14.2383 6.46378C14.6133 5.70099 15.1332 5.10866 15.7979 4.68679C16.467 4.26491 17.2447 4.05398 18.131 4.05398C19.0174 4.05398 19.793 4.26491 20.4577 4.68679C21.1268 5.10866 21.6467 5.70099 22.0174 6.46378C22.3924 7.22656 22.5799 8.11932 22.5799 9.14205C22.5799 10.1562 22.3924 11.0426 22.0174 11.8011C21.6467 12.5597 21.1268 13.1499 20.4577 13.5717C19.793 13.9936 19.0174 14.2045 18.131 14.2045ZM18.131 12.8494C18.8043 12.8494 19.3583 12.6768 19.793 12.3317C20.2276 11.9865 20.5494 11.5327 20.7582 10.9702C20.967 10.4077 21.0714 9.7983 21.0714 9.14205C21.0714 8.4858 20.967 7.87429 20.7582 7.30753C20.5494 6.74077 20.2276 6.28267 19.793 5.93324C19.3583 5.58381 18.8043 5.40909 18.131 5.40909C17.4577 5.40909 16.9038 5.58381 16.4691 5.93324C16.0344 6.28267 15.7127 6.74077 15.5039 7.30753C15.2951 7.87429 15.1907 8.4858 15.1907 9.14205C15.1907 9.7983 15.2951 10.4077 15.5039 10.9702C15.7127 11.5327 16.0344 11.9865 16.4691 12.3317C16.9038 12.6768 17.4577 12.8494 18.131 12.8494ZM24.8826 14V4.18182H26.34V5.71591H26.4679C26.6724 5.19176 27.0027 4.7848 27.4586 4.49503C27.9146 4.20099 28.4622 4.05398 29.1014 4.05398C29.7491 4.05398 30.2882 4.20099 30.7186 4.49503C31.1532 4.7848 31.492 5.19176 31.7349 5.71591H31.8372C32.0886 5.20881 32.4657 4.80611 32.9686 4.50781C33.4714 4.20526 34.0744 4.05398 34.7775 4.05398C35.6554 4.05398 36.3734 4.32884 36.9316 4.87855C37.4899 5.42401 37.769 6.27415 37.769 7.42898V14H36.2605V7.42898C36.2605 6.70455 36.0623 6.18679 35.666 5.87571C35.2697 5.56463 34.8031 5.40909 34.2662 5.40909C33.5758 5.40909 33.041 5.6179 32.6618 6.03551C32.2825 6.44886 32.0929 6.97301 32.0929 7.60795V14H30.5588V7.27557C30.5588 6.71733 30.3777 6.26776 30.0154 5.92685C29.6532 5.58168 29.1866 5.40909 28.6156 5.40909C28.2235 5.40909 27.8571 5.51349 27.5162 5.7223C27.1795 5.93111 26.9068 6.22088 26.698 6.59162C26.4934 6.9581 26.3912 7.3821 26.3912 7.86364V14H24.8826ZM40.5272 17.6818V4.18182H41.9846V5.74148H42.1635C42.2743 5.57102 42.4277 5.35369 42.6238 5.08949C42.824 4.82102 43.1096 4.58239 43.4803 4.37358C43.8553 4.16051 44.3624 4.05398 45.0016 4.05398C45.8283 4.05398 46.557 4.26065 47.1877 4.67401C47.8184 5.08736 48.3105 5.6733 48.6642 6.43182C49.0179 7.19034 49.1948 8.08523 49.1948 9.11648C49.1948 10.1562 49.0179 11.0575 48.6642 11.8203C48.3105 12.5788 47.8205 13.1669 47.1941 13.5845C46.5676 13.9979 45.8453 14.2045 45.0272 14.2045C44.3965 14.2045 43.8915 14.1001 43.5123 13.8913C43.133 13.6783 42.8411 13.4375 42.6365 13.169C42.432 12.8963 42.2743 12.6705 42.1635 12.4915H42.0357V17.6818H40.5272ZM42.0101 9.09091C42.0101 9.83239 42.1188 10.4865 42.3361 11.0533C42.5534 11.6158 42.8709 12.0568 43.2885 12.3764C43.7061 12.6918 44.2175 12.8494 44.8226 12.8494C45.4533 12.8494 45.9796 12.6832 46.4015 12.3509C46.8276 12.0142 47.1472 11.5625 47.3603 10.9957C47.5776 10.4247 47.6863 9.78977 47.6863 9.09091C47.6863 8.40057 47.5797 7.77841 47.3667 7.22443C47.1578 6.66619 46.8404 6.22514 46.4142 5.90128C45.9924 5.57315 45.4618 5.40909 44.8226 5.40909C44.209 5.40909 43.6934 5.56463 43.2757 5.87571C42.8581 6.18253 42.5428 6.61293 42.3297 7.1669C42.1167 7.71662 42.0101 8.35795 42.0101 9.09091ZM54.3851 14.2301C53.763 14.2301 53.1983 14.1129 52.6912 13.8786C52.1841 13.6399 51.7814 13.2969 51.4831 12.8494C51.1848 12.3977 51.0357 11.8523 51.0357 11.2131C51.0357 10.6506 51.1465 10.1946 51.3681 9.84517C51.5897 9.49148 51.8858 9.21449 52.2566 9.0142C52.6273 8.81392 53.0364 8.66477 53.4838 8.56676C53.9355 8.46449 54.3894 8.38352 54.8453 8.32386C55.4419 8.24716 55.9256 8.18963 56.2963 8.15128C56.6713 8.10866 56.9441 8.03835 57.1145 7.94034C57.2892 7.84233 57.3766 7.67187 57.3766 7.42898V7.37784C57.3766 6.74716 57.204 6.2571 56.8588 5.90767C56.5179 5.55824 56.0002 5.38352 55.3056 5.38352C54.5854 5.38352 54.0208 5.54119 53.6117 5.85653C53.2026 6.17187 52.915 6.50852 52.7488 6.86648L51.3169 6.35511C51.5726 5.75852 51.9135 5.29403 52.3397 4.96165C52.7701 4.625 53.2388 4.39062 53.7459 4.25852C54.2573 4.12216 54.7601 4.05398 55.2544 4.05398C55.5698 4.05398 55.932 4.09233 56.3411 4.16903C56.7544 4.24148 57.1529 4.39276 57.5364 4.62287C57.9242 4.85298 58.2459 5.20028 58.5016 5.66477C58.7573 6.12926 58.8851 6.75142 58.8851 7.53125V14H57.3766V12.6705H57.2999C57.1976 12.8835 57.0272 13.1115 56.7885 13.3544C56.5499 13.5973 56.2324 13.804 55.8361 13.9744C55.4398 14.1449 54.9561 14.2301 54.3851 14.2301ZM54.6152 12.875C55.2118 12.875 55.7147 12.7578 56.1238 12.5234C56.5371 12.2891 56.8482 11.9865 57.057 11.6158C57.2701 11.245 57.3766 10.8551 57.3766 10.446V9.06534C57.3127 9.14205 57.1721 9.21236 56.9547 9.27628C56.7417 9.33594 56.4945 9.3892 56.2132 9.43608C55.9363 9.47869 55.6657 9.51705 55.4015 9.55114C55.1415 9.58097 54.9306 9.60653 54.7686 9.62784C54.3766 9.67898 54.0101 9.76207 53.6692 9.87713C53.3326 9.98793 53.0598 10.1562 52.851 10.3821C52.6465 10.6037 52.5442 10.9062 52.5442 11.2898C52.5442 11.8139 52.7381 12.2102 53.1259 12.4787C53.5179 12.7429 54.0144 12.875 54.6152 12.875ZM63.147 8.09375V14H61.6385V4.18182H63.0959V5.71591H63.2237C63.4538 5.21733 63.8033 4.81676 64.272 4.5142C64.7408 4.20739 65.3459 4.05398 66.0874 4.05398C66.7521 4.05398 67.3338 4.19034 67.8324 4.46307C68.331 4.73153 68.7188 5.14062 68.9957 5.69034C69.2727 6.2358 69.4112 6.92614 69.4112 7.76136V14H67.9027V7.86364C67.9027 7.09233 67.7024 6.49148 67.3018 6.06108C66.9013 5.62642 66.3516 5.40909 65.6527 5.40909C65.1712 5.40909 64.7408 5.51349 64.3615 5.7223C63.9865 5.93111 63.6903 6.2358 63.473 6.63636C63.2557 7.03693 63.147 7.52273 63.147 8.09375ZM72.7878 17.6818C72.5321 17.6818 72.3042 17.6605 72.1039 17.6179C71.9036 17.5795 71.7651 17.5412 71.6884 17.5028L72.0719 16.1733C72.4384 16.267 72.7623 16.3011 73.0435 16.2756C73.3248 16.25 73.574 16.1243 73.7914 15.8984C74.013 15.6768 74.2154 15.3168 74.3986 14.8182L74.6799 14.0511L71.0492 4.18182H72.6855L75.3958 12.0057H75.498L78.2083 4.18182H79.8446L75.677 15.4318C75.4895 15.9389 75.2573 16.3587 74.9803 16.6911C74.7033 17.0277 74.3816 17.277 74.0151 17.4389C73.6529 17.6009 73.2438 17.6818 72.7878 17.6818ZM97.4835 0.909091V14H95.9494L88.8159 3.72159H88.688V14H87.1028V0.909091H88.6369L95.796 11.2131H95.9238V0.909091H97.4835ZM103.34 14.2301C102.718 14.2301 102.153 14.1129 101.646 13.8786C101.139 13.6399 100.737 13.2969 100.438 12.8494C100.14 12.3977 99.9908 11.8523 99.9908 11.2131C99.9908 10.6506 100.102 10.1946 100.323 9.84517C100.545 9.49148 100.841 9.21449 101.212 9.0142C101.582 8.81392 101.991 8.66477 102.439 8.56676C102.891 8.46449 103.344 8.38352 103.8 8.32386C104.397 8.24716 104.881 8.18963 105.251 8.15128C105.626 8.10866 105.899 8.03835 106.07 7.94034C106.244 7.84233 106.332 7.67187 106.332 7.42898V7.37784C106.332 6.74716 106.159 6.2571 105.814 5.90767C105.473 5.55824 104.955 5.38352 104.261 5.38352C103.54 5.38352 102.976 5.54119 102.567 5.85653C102.158 6.17187 101.87 6.50852 101.704 6.86648L100.272 6.35511C100.528 5.75852 100.869 5.29403 101.295 4.96165C101.725 4.625 102.194 4.39062 102.701 4.25852C103.212 4.12216 103.715 4.05398 104.21 4.05398C104.525 4.05398 104.887 4.09233 105.296 4.16903C105.71 4.24148 106.108 4.39276 106.491 4.62287C106.879 4.85298 107.201 5.20028 107.457 5.66477C107.712 6.12926 107.84 6.75142 107.84 7.53125V14H106.332V12.6705H106.255C106.153 12.8835 105.982 13.1115 105.744 13.3544C105.505 13.5973 105.188 13.804 104.791 13.9744C104.395 14.1449 103.911 14.2301 103.34 14.2301ZM103.57 12.875C104.167 12.875 104.67 12.7578 105.079 12.5234C105.492 12.2891 105.803 11.9865 106.012 11.6158C106.225 11.245 106.332 10.8551 106.332 10.446V9.06534C106.268 9.14205 106.127 9.21236 105.91 9.27628C105.697 9.33594 105.45 9.3892 105.168 9.43608C104.891 9.47869 104.621 9.51705 104.357 9.55114C104.097 9.58097 103.886 9.60653 103.724 9.62784C103.332 9.67898 102.965 9.76207 102.624 9.87713C102.288 9.98793 102.015 10.1562 101.806 10.3821C101.602 10.6037 101.499 10.9062 101.499 11.2898C101.499 11.8139 101.693 12.2102 102.081 12.4787C102.473 12.7429 102.969 12.875 103.57 12.875ZM110.594 14V4.18182H112.051V5.71591H112.179C112.383 5.19176 112.714 4.7848 113.17 4.49503C113.626 4.20099 114.173 4.05398 114.812 4.05398C115.46 4.05398 115.999 4.20099 116.43 4.49503C116.864 4.7848 117.203 5.19176 117.446 5.71591H117.548C117.8 5.20881 118.177 4.80611 118.68 4.50781C119.182 4.20526 119.785 4.05398 120.488 4.05398C121.366 4.05398 122.084 4.32884 122.643 4.87855C123.201 5.42401 123.48 6.27415 123.48 7.42898V14H121.971V7.42898C121.971 6.70455 121.773 6.18679 121.377 5.87571C120.981 5.56463 120.514 5.40909 119.977 5.40909C119.287 5.40909 118.752 5.6179 118.373 6.03551C117.993 6.44886 117.804 6.97301 117.804 7.60795V14H116.27V7.27557C116.27 6.71733 116.089 6.26776 115.726 5.92685C115.364 5.58168 114.898 5.40909 114.327 5.40909C113.934 5.40909 113.568 5.51349 113.227 5.7223C112.89 5.93111 112.618 6.22088 112.409 6.59162C112.204 6.9581 112.102 7.3821 112.102 7.86364V14H110.594ZM130.355 14.2045C129.409 14.2045 128.593 13.9957 127.906 13.5781C127.225 13.1562 126.698 12.5682 126.328 11.8139C125.961 11.0554 125.778 10.1733 125.778 9.16761C125.778 8.16193 125.961 7.27557 126.328 6.50852C126.698 5.73722 127.214 5.13636 127.874 4.70597C128.539 4.27131 129.315 4.05398 130.201 4.05398C130.713 4.05398 131.218 4.1392 131.716 4.30966C132.215 4.48011 132.669 4.7571 133.078 5.14062C133.487 5.51989 133.813 6.02273 134.056 6.64915C134.298 7.27557 134.42 8.04687 134.42 8.96307V9.60227H126.852V8.2983H132.886C132.886 7.74432 132.775 7.25 132.553 6.81534C132.336 6.38068 132.025 6.03764 131.62 5.78622C131.22 5.5348 130.747 5.40909 130.201 5.40909C129.6 5.40909 129.08 5.55824 128.642 5.85653C128.207 6.15057 127.872 6.53409 127.638 7.0071C127.404 7.48011 127.286 7.98722 127.286 8.52841V9.39773C127.286 10.1392 127.414 10.7678 127.67 11.2834C127.93 11.7947 128.29 12.1847 128.75 12.4531C129.21 12.7173 129.745 12.8494 130.355 12.8494C130.751 12.8494 131.109 12.794 131.428 12.6832C131.752 12.5682 132.031 12.3977 132.266 12.1719C132.5 11.9418 132.681 11.6562 132.809 11.3153L134.267 11.7244C134.113 12.2188 133.855 12.6534 133.493 13.0284C133.131 13.3991 132.683 13.6889 132.151 13.8977C131.618 14.1023 131.019 14.2045 130.355 14.2045Z" fill="black"/>
</svg>
